<svg xmlns="http://www.w3.org/2000/svg" width="29.333" height="22" fill="none"><defs><clipPath id="a"><rect width="28.333" height="21" fill="#fff" fill-opacity="0" rx="0" transform="matrix(-1 0 0 1 29.833 .5)"/></clipPath></defs><rect width="28.333" height="21" fill="none" rx="0" transform="matrix(-1 0 0 1 29.833 .5)"/><g clip-path="url(#a)"><path stroke="#000" stroke-linecap="round" stroke-linejoin="round" stroke-width="1.5" d="m2.24 2.12 9.96 7.75c.7.55 1.57.85 2.46.85.89 0 1.76-.3 2.47-.85l9.95-7.75M3.66 1.43c-1.01 0-1.83.84-1.83 1.86v14.86c0 1.02.82 1.85 1.83 1.85h22c1.01 0 1.84-.83 1.84-1.85V3.29c0-1.02-.83-1.86-1.84-1.86h-22Z"/></g></svg>